<?xml version="1.0" encoding="utf-8"?>
<!-- Generator: Adobe Illustrator 23.0.3, SVG Export Plug-In . SVG Version: 6.00 Build 0)  -->
<svg version="1.1" id="Слой_1" xmlns="http://www.w3.org/2000/svg" xmlns:xlink="http://www.w3.org/1999/xlink" x="0px" y="0px"
	 viewBox="0 0 26 23" style="enable-background:new 0 0 26 23;" xml:space="preserve">
<style type="text/css">
	.st0{fill-rule:evenodd;clip-rule:evenodd;fill:#8C8C7C;}
</style>
<path id="Ellipse_1_copy" class="st0" d="M13.2,18.8c-6.8,0-12.3-5.7-12.3-6.6c0-1,5.5-6.6,12.3-6.6s12.3,5.6,12.3,6.6
	S20,18.8,13.2,18.8z M13.2,6.8c-5.3,0-10.7,4.6-10.7,5.4c0,0.7,5.4,5.4,10.7,5.4s10.7-4.7,10.7-5.4S18.5,6.8,13.2,6.8L13.2,6.8z
	 M13.2,16.3c-2.3,0-4.2-1.8-4.3-4.1c0-2.3,1.9-4.1,4.3-4.1c2.3,0,4.2,1.8,4.3,4.1C17.4,14.5,15.5,16.3,13.2,16.3z"/>
</svg>
